<svg xmlns="http://www.w3.org/2000/svg" width="1200" height="1200" viewBox="0 0 1200 1200" fill="none"><path d="M107.076 271.267C5.36193 499.818 230.849 1097.24 570.917 1120.52C833.781 1138.29 1198.97 606.434 1103.39 322.737C991.867 -9.36576 217.369 24.9475 107.076 271.267Z" fill="url(#paint0_radial_213_323)"></path><path d="M81.9541 616.238C81.9541 899.935 540.893 1175.05 823.977 1110.72C1169.56 1032.9 1113.19 209.382 863.805 97.8638C663.44 7.79154 81.9541 274.944 81.9541 616.238Z" fill="url(#paint1_radial_213_323)"></path><path d="M698.367 85.6093C474.105 118.084 159.772 300.067 94.209 530.456C119.944 673.223 187.345 831.922 284.157 949.567C388.935 1031.06 520.061 1091.11 644.446 1111.94C803.757 1069.05 980.838 866.848 1066.62 658.518C1072.75 458.153 1020.67 246.146 927.53 145.045C860.129 113.795 781.086 94.1876 698.367 85.6093Z" fill="url(#paint2_radial_213_323)"></path><path d="M891.074 320.037C884.339 320.356 877.772 323.415 873.196 328.37C804.729 400.034 695.208 520.603 622.494 597.468L530.868 527.348C520.083 518.91 502.567 521.128 494.224 531.988C485.882 542.849 488.248 560.353 499.175 568.606L609.695 653.157C619.763 660.943 635.66 659.735 644.435 650.515C717.24 574.313 839.317 439.358 910.984 364.345C918.339 356.933 920.529 344.872 916.248 335.347C911.968 325.821 901.498 319.454 891.074 320.037ZM398 398.49V749.698C398.001 763.319 410.389 775.712 424.005 775.714H788.071C801.687 775.712 814.075 763.319 814.076 749.698V580.598C814.271 566.854 801.812 554.212 788.071 554.212C774.331 554.212 761.872 566.854 762.067 580.598V723.683H450.01V424.505H723.06C736.798 424.7 749.435 412.236 749.435 398.49C749.435 384.744 736.798 372.28 723.06 372.474H424.005C409.666 372.474 398.289 387.526 398 398.49Z" fill="white"></path><defs><radialGradient id="paint0_radial_213_323" cx="0" cy="0" r="1" gradientUnits="userSpaceOnUse" gradientTransform="translate(785.988 752.265) rotate(-90) scale(768.984 768.984)"><stop stop-color="#0FAFF3"></stop><stop offset="1" stop-color="#C6B3FF"></stop></radialGradient><radialGradient id="paint1_radial_213_323" cx="0" cy="0" r="1" gradientUnits="userSpaceOnUse" gradientTransform="translate(849.712 619.915) rotate(-90) scale(760.405 760.405)"><stop stop-color="#D9FDFF"></stop><stop offset="1" stop-color="#247BA0"></stop></radialGradient><radialGradient id="paint2_radial_213_323" cx="0" cy="0" r="1" gradientUnits="userSpaceOnUse" gradientTransform="translate(1065.4 1064.76) rotate(-90) scale(931.359 931.359)"><stop stop-color="#C231F5"></stop><stop offset="1" stop-color="#247BA0"></stop></radialGradient></defs></svg>